<?xml version="1.0" encoding="UTF-8"?>
<svg xmlns="http://www.w3.org/2000/svg" xmlns:xlink="http://www.w3.org/1999/xlink" width="43pt" height="64pt" viewBox="0 0 43 64" version="1.1">
<g id="surface1">
<path style=" stroke:none;fill-rule:evenodd;fill:rgb(25.882353%,64.705882%,96.078431%);fill-opacity:1;" d="M 21.480469 0.0195312 C 25.617188 17.539062 30.636719 18.445312 39.210938 31.609375 C 41.441406 35.03125 43 38.667969 43 42.84375 C 43 48.640625 40.890625 53.613281 36.667969 57.753906 C 32.429688 61.898438 27.378906 63.980469 21.492188 63.980469 C 15.621094 63.980469 10.582031 61.898438 6.34375 57.753906 C 2.113281 53.613281 0 48.640625 0 42.84375 C 0 38.648438 1.585938 34.984375 3.835938 31.542969 C 12.425781 18.410156 17.425781 17.484375 21.480469 0.0195312 Z M 9.21875 37.382812 C 10.417969 37.273438 11.476562 38.152344 11.582031 39.339844 C 11.855469 42.210938 12.492188 44.863281 13.703125 47.148438 C 14.871094 49.355469 16.613281 51.253906 19.132812 52.714844 C 20.171875 53.320312 20.515625 54.648438 19.90625 55.671875 C 19.300781 56.703125 17.960938 57.046875 16.929688 56.445312 C 13.648438 54.539062 11.378906 52.0625 9.839844 49.160156 C 8.292969 46.242188 7.554688 42.992188 7.246094 39.730469 C 7.132812 38.546875 8.027344 37.492188 9.21875 37.382812 Z M 9.21875 37.382812 "/>
</g>
</svg>
